<svg width="30" height="30" viewBox="0 0 30 30" fill="none" xmlns="http://www.w3.org/2000/svg">
<circle cx="15" cy="15" r="14" fill="#F7F9FB" stroke="black" stroke-width="2"/>
<path d="M14.1614 8.03711H15.0676V22.1934H14.1614V8.03711ZM16.9973 12.4355C16.9609 12.0918 16.8411 11.7949 16.6379 11.5449C16.44 11.2949 16.1718 11.1074 15.8333 10.9824C15.4947 10.8574 15.1093 10.7949 14.677 10.7949C14.2239 10.7949 13.8254 10.8652 13.4817 11.0059C13.1379 11.1465 12.8723 11.3444 12.6848 11.5996C12.4973 11.8496 12.4036 12.1361 12.4036 12.459C12.4036 12.9382 12.5989 13.3079 12.9895 13.5684C13.3853 13.8236 13.8775 14.0215 14.4661 14.1621L15.552 14.4512C16.4947 14.6855 17.2734 15.0449 17.8879 15.5293C18.5077 16.0137 18.8176 16.7194 18.8176 17.6465C18.8176 18.2871 18.651 18.86 18.3176 19.3652C17.9895 19.8652 17.5077 20.2559 16.8723 20.5371C16.2421 20.8184 15.4921 20.959 14.6223 20.959C13.7786 20.959 13.0468 20.8236 12.427 20.5527C11.8124 20.2819 11.328 19.8991 10.9739 19.4043C10.6249 18.9095 10.4296 18.321 10.3879 17.6387H12.1067C12.1379 18.0293 12.2681 18.3626 12.4973 18.6387C12.7265 18.9095 13.0234 19.1126 13.3879 19.248C13.7577 19.3835 14.1666 19.4486 14.6145 19.4434C15.0937 19.4434 15.5234 19.3678 15.9036 19.2168C16.2838 19.0658 16.5806 18.8522 16.7942 18.5762C17.0077 18.3001 17.1145 17.9798 17.1145 17.6152C17.1145 17.3027 17.026 17.0371 16.8489 16.8184C16.6718 16.5996 16.4296 16.4225 16.1223 16.2871C15.815 16.1517 15.4348 16.0241 14.9817 15.9043L13.6379 15.5527C12.69 15.2923 11.9609 14.9199 11.4504 14.4355C10.9452 13.946 10.6952 13.3184 10.7004 12.5527C10.7004 11.9121 10.8723 11.3444 11.2161 10.8496C11.565 10.3548 12.0442 9.97461 12.6536 9.70898C13.2681 9.43815 13.9556 9.30273 14.7161 9.30273C15.4713 9.30273 16.1458 9.43815 16.7395 9.70898C17.3385 9.97461 17.8046 10.347 18.1379 10.8262C18.4765 11.3001 18.651 11.8366 18.6614 12.4355H16.9973Z" fill="black"/>
</svg>
