<svg width="30" height="30" viewBox="0 0 30 30" fill="none" xmlns="http://www.w3.org/2000/svg">
<circle cx="15" cy="15" r="14" fill="#F7F9FB" stroke="black" stroke-width="2"/>
<path d="M14.1614 8.03735H15.0676V22.1936H14.1614V8.03735ZM16.9973 12.4358C16.9609 12.092 16.8411 11.7952 16.6379 11.5452C16.44 11.2952 16.1718 11.1077 15.8333 10.9827C15.4947 10.8577 15.1093 10.7952 14.677 10.7952C14.2239 10.7952 13.8254 10.8655 13.4817 11.0061C13.1379 11.1467 12.8723 11.3446 12.6848 11.5999C12.4973 11.8499 12.4036 12.1363 12.4036 12.4592C12.4036 12.9384 12.5989 13.3082 12.9895 13.5686C13.3853 13.8238 13.8775 14.0217 14.4661 14.1624L15.552 14.4514C16.4947 14.6858 17.2734 15.0452 17.8879 15.5295C18.5077 16.0139 18.8176 16.7196 18.8176 17.6467C18.8176 18.2874 18.651 18.8603 18.3176 19.3655C17.9895 19.8655 17.5077 20.2561 16.8723 20.5374C16.2421 20.8186 15.4921 20.9592 14.6223 20.9592C13.7786 20.9592 13.0468 20.8238 12.427 20.553C11.8124 20.2821 11.328 19.8993 10.9739 19.4045C10.6249 18.9097 10.4296 18.3212 10.3879 17.6389H12.1067C12.1379 18.0295 12.2681 18.3629 12.4973 18.6389C12.7265 18.9097 13.0234 19.1129 13.3879 19.2483C13.7577 19.3837 14.1666 19.4488 14.6145 19.4436C15.0937 19.4436 15.5234 19.3681 15.9036 19.217C16.2838 19.066 16.5806 18.8525 16.7942 18.5764C17.0077 18.3004 17.1145 17.9801 17.1145 17.6155C17.1145 17.303 17.026 17.0374 16.8489 16.8186C16.6718 16.5999 16.4296 16.4228 16.1223 16.2874C15.815 16.1519 15.4348 16.0243 14.9817 15.9045L13.6379 15.553C12.69 15.2926 11.9609 14.9202 11.4504 14.4358C10.9452 13.9462 10.6952 13.3186 10.7004 12.553C10.7004 11.9124 10.8723 11.3446 11.2161 10.8499C11.565 10.3551 12.0442 9.97485 12.6536 9.70923C13.2681 9.4384 13.9556 9.30298 14.7161 9.30298C15.4713 9.30298 16.1458 9.4384 16.7395 9.70923C17.3385 9.97485 17.8046 10.3472 18.1379 10.8264C18.4765 11.3004 18.651 11.8368 18.6614 12.4358H16.9973Z" fill="black"/>
</svg>
