<svg width="26" height="28" viewBox="0 0 26 28" fill="none" xmlns="http://www.w3.org/2000/svg">
<path d="M7.09265 1.26318L1.34668 6.34131V26.6538H24.3306V1.26318H7.09265Z" stroke="white" stroke-width="2" stroke-linejoin="round"/>
<path d="M7.09265 1.26318V6.34131H1.34668" stroke="white" stroke-width="2" stroke-linejoin="round"/>
<path d="M9.00806 12.2657C9.00806 11.4287 9.28889 10.6106 9.81503 9.91466C10.3412 9.21875 11.089 8.67635 11.964 8.35606C12.8389 8.03577 13.8017 7.95197 14.7305 8.11525C15.6594 8.27853 16.5126 8.68157 17.1822 9.27339C17.8519 9.86522 18.3079 10.6192 18.4927 11.4401C18.6774 12.261 18.5826 13.1119 18.2202 13.8851C17.8578 14.6584 17.244 15.3193 16.4566 15.7843C15.6692 16.2493 14.7434 16.4975 13.7964 16.4975V19.0365" stroke="white" stroke-width="2" stroke-linejoin="round"/>
<path d="M12.8386 21.5757H14.7539" stroke="white" stroke-width="2" stroke-linejoin="round"/>
</svg>
