<svg width="30" height="30" viewBox="0 0 30 30" fill="none" xmlns="http://www.w3.org/2000/svg">
<path d="M28.1249 14.0626C27.9295 14.0613 27.7394 13.999 27.5812 13.8844L14.9999 4.90319L2.41866 13.8844C2.21682 14.004 1.97749 14.0435 1.74793 13.9952C1.51837 13.9469 1.31525 13.8143 1.17868 13.6236C1.04211 13.4329 0.982004 13.1979 1.01023 12.965C1.03846 12.7321 1.15297 12.5183 1.33116 12.3657L14.4562 2.99069C14.6149 2.87764 14.805 2.81689 14.9999 2.81689C15.1948 2.81689 15.3849 2.87764 15.5437 2.99069L28.6687 12.3657C28.8287 12.4816 28.9481 12.6451 29.0097 12.8328C29.0713 13.0206 29.072 13.223 29.0117 13.4112C28.9514 13.5993 28.8332 13.7637 28.6739 13.8806C28.5147 13.9976 28.3225 14.0613 28.1249 14.0626Z" fill="black"/>
<path d="M4.6875 8.4375C4.43886 8.4375 4.2004 8.33873 4.02459 8.16291C3.84877 7.9871 3.75 7.74864 3.75 7.5V3.75C3.75 3.50136 3.84877 3.2629 4.02459 3.08709C4.2004 2.91127 4.43886 2.8125 4.6875 2.8125H8.4375C8.68614 2.8125 8.9246 2.91127 9.10041 3.08709C9.27623 3.2629 9.375 3.50136 9.375 3.75C9.375 3.99864 9.27623 4.2371 9.10041 4.41291C8.9246 4.58873 8.68614 4.6875 8.4375 4.6875H5.625V7.5C5.625 7.74864 5.52623 7.9871 5.35041 8.16291C5.1746 8.33873 4.93614 8.4375 4.6875 8.4375Z" fill="black"/>
<path d="M23.4375 27.1875H18.75C18.5014 27.1875 18.2629 27.0887 18.0871 26.9129C17.9113 26.7371 17.8125 26.4986 17.8125 26.25V19.6875H12.1875V26.25C12.1875 26.4986 12.0887 26.7371 11.9129 26.9129C11.7371 27.0887 11.4986 27.1875 11.25 27.1875H6.5625C5.81658 27.1875 5.10121 26.8912 4.57376 26.3637C4.04632 25.8363 3.75 25.1209 3.75 24.375V15C3.75 14.7514 3.84877 14.5129 4.02459 14.3371C4.2004 14.1613 4.43886 14.0625 4.6875 14.0625C4.93614 14.0625 5.1746 14.1613 5.35041 14.3371C5.52623 14.5129 5.625 14.7514 5.625 15V24.375C5.625 24.6236 5.72377 24.8621 5.89959 25.0379C6.0754 25.2137 6.31386 25.3125 6.5625 25.3125H10.3125V18.75C10.3125 18.5014 10.4113 18.2629 10.5871 18.0871C10.7629 17.9113 11.0014 17.8125 11.25 17.8125H18.75C18.9986 17.8125 19.2371 17.9113 19.4129 18.0871C19.5887 18.2629 19.6875 18.5014 19.6875 18.75V25.3125H23.4375C23.6861 25.3125 23.9246 25.2137 24.1004 25.0379C24.2762 24.8621 24.375 24.6236 24.375 24.375V15C24.375 14.7514 24.4738 14.5129 24.6496 14.3371C24.8254 14.1613 25.0639 14.0625 25.3125 14.0625C25.5611 14.0625 25.7996 14.1613 25.9754 14.3371C26.1512 14.5129 26.25 14.7514 26.25 15V24.375C26.25 25.1209 25.9537 25.8363 25.4262 26.3637C24.8988 26.8912 24.1834 27.1875 23.4375 27.1875Z" fill="black"/>
</svg>
