<svg width="30" height="30" viewBox="0 0 30 30" fill="none" xmlns="http://www.w3.org/2000/svg">
<path d="M28.125 14.0625C27.9296 14.0612 27.7395 13.999 27.5813 13.8844L15 4.90313L2.41878 13.8844C2.21694 14.0039 1.97761 14.0434 1.74805 13.9952C1.51849 13.9469 1.31538 13.8143 1.1788 13.6235C1.04223 13.4328 0.982126 13.1978 1.01035 12.9649C1.03858 12.732 1.15309 12.5182 1.33128 12.3656L14.4563 2.99063C14.6151 2.87758 14.8051 2.81683 15 2.81683C15.1949 2.81683 15.385 2.87758 15.5438 2.99063L28.6688 12.3656C28.8288 12.4815 28.9482 12.645 29.0098 12.8328C29.0714 13.0205 29.0721 13.2229 29.0118 13.4111C28.9515 13.5993 28.8333 13.7636 28.674 13.8806C28.5148 13.9976 28.3226 14.0612 28.125 14.0625Z" fill="black"/>
<path d="M4.6875 8.4375C4.43886 8.4375 4.2004 8.33873 4.02459 8.16291C3.84877 7.9871 3.75 7.74864 3.75 7.5V3.75C3.75 3.50136 3.84877 3.2629 4.02459 3.08709C4.2004 2.91127 4.43886 2.8125 4.6875 2.8125H8.4375C8.68614 2.8125 8.9246 2.91127 9.10041 3.08709C9.27623 3.2629 9.375 3.50136 9.375 3.75C9.375 3.99864 9.27623 4.2371 9.10041 4.41291C8.9246 4.58873 8.68614 4.6875 8.4375 4.6875H5.625V7.5C5.625 7.74864 5.52623 7.9871 5.35041 8.16291C5.1746 8.33873 4.93614 8.4375 4.6875 8.4375Z" fill="black"/>
<path d="M23.4375 27.1875H18.75C18.5014 27.1875 18.2629 27.0887 18.0871 26.9129C17.9113 26.7371 17.8125 26.4986 17.8125 26.25V19.6875H12.1875V26.25C12.1875 26.4986 12.0887 26.7371 11.9129 26.9129C11.7371 27.0887 11.4986 27.1875 11.25 27.1875H6.5625C5.81658 27.1875 5.10121 26.8912 4.57376 26.3637C4.04632 25.8363 3.75 25.1209 3.75 24.375V15C3.75 14.7514 3.84877 14.5129 4.02459 14.3371C4.2004 14.1613 4.43886 14.0625 4.6875 14.0625C4.93614 14.0625 5.1746 14.1613 5.35041 14.3371C5.52623 14.5129 5.625 14.7514 5.625 15V24.375C5.625 24.6236 5.72377 24.8621 5.89959 25.0379C6.0754 25.2137 6.31386 25.3125 6.5625 25.3125H10.3125V18.75C10.3125 18.5014 10.4113 18.2629 10.5871 18.0871C10.7629 17.9113 11.0014 17.8125 11.25 17.8125H18.75C18.9986 17.8125 19.2371 17.9113 19.4129 18.0871C19.5887 18.2629 19.6875 18.5014 19.6875 18.75V25.3125H23.4375C23.6861 25.3125 23.9246 25.2137 24.1004 25.0379C24.2762 24.8621 24.375 24.6236 24.375 24.375V15C24.375 14.7514 24.4738 14.5129 24.6496 14.3371C24.8254 14.1613 25.0639 14.0625 25.3125 14.0625C25.5611 14.0625 25.7996 14.1613 25.9754 14.3371C26.1512 14.5129 26.25 14.7514 26.25 15V24.375C26.25 25.1209 25.9537 25.8363 25.4262 26.3637C24.8988 26.8912 24.1834 27.1875 23.4375 27.1875Z" fill="black"/>
</svg>
