<svg width="30" height="30" viewBox="0 0 30 30" fill="none" xmlns="http://www.w3.org/2000/svg">
<path d="M19.9319 9.76421C19.824 9.65052 19.6922 9.57474 19.5364 9.53684L16.8996 9.13263L15.725 6.63158C15.6171 6.4421 15.4493 6.30316 15.2575 6.22737C15.0418 6.15158 14.8141 6.17684 14.6103 6.29052C14.4785 6.36631 14.3586 6.48 14.2747 6.61895L13.1001 9.13263L10.5232 9.52421L10.4753 9.53684C10.1996 9.6 10.0558 9.78947 10.0079 9.84L9.95993 9.90316C9.84007 10.0926 9.79213 10.32 9.82808 10.5474C9.85206 10.7116 9.92397 10.8632 10.0558 11.0274L11.9256 12.9474L11.4821 15.7011C11.4701 15.84 11.4821 16.0674 11.6259 16.2947L11.6739 16.3579C11.8536 16.5726 12.0694 16.6484 12.1773 16.6611C12.2252 16.6737 12.2731 16.6737 12.3091 16.6737C12.4289 16.6737 12.5488 16.6484 12.6806 16.5726L14.9819 15.2968L17.3191 16.5979C17.5108 16.6863 17.7266 16.6989 17.9183 16.6232C18.1341 16.5474 18.3139 16.3832 18.4217 16.1558C18.4817 16.0168 18.5056 15.8526 18.4936 15.6505L18.0502 12.9474L19.9439 11.0021C20.0877 10.8379 20.1596 10.6232 20.1596 10.4084V10.3453C20.1596 10.08 20.0637 9.89052 19.9319 9.76421ZM16.8037 12.5053L17.2352 15.12L15.0058 13.8821L12.7765 15.12L13.196 12.5053L11.3982 10.6484L13.8912 10.2695L15.0058 7.89474L16.1205 10.2695L18.6135 10.6484L16.8037 12.5053Z" fill="black"/>
<mask id="path-2-inside-1_300_1139" fill="white">
<path d="M28.5376 3.43579H25.0498V1.12421C25.0498 0.505263 24.5704 0 23.9831 0H6.02873C5.44144 0 4.96202 0.505263 4.96202 1.12421V3.43579H1.47422C0.659205 3.43579 0 4.13053 0 4.98947V8.19789C0 11.5453 2.27726 14.3747 5.34556 14.9684C5.74108 16.6105 6.46021 18.1011 7.467 19.3011C8.7135 20.7916 10.3196 21.8653 12.1294 22.4337L10.2836 26.6274H10.2716C9.67234 26.6274 9.19292 27.1326 9.19292 27.7768V30H20.8069V27.7768C20.8069 27.1453 20.3275 26.64 19.7282 26.64L17.8705 22.4463C19.6803 21.8779 21.2863 20.8042 22.5328 19.3137C23.5396 18.1137 24.2588 16.6232 24.6543 14.9811C27.7346 14.3874 29.9998 11.5579 29.9998 8.21053V4.98947C30.0118 4.13053 29.3526 3.43579 28.5376 3.43579ZM1.18657 8.19789V4.98947C1.18657 4.81263 1.31841 4.67368 1.48621 4.67368H4.974V11.5074C4.974 12.2147 5.02195 12.9221 5.11783 13.6295C2.8166 12.96 1.18657 10.7621 1.18657 8.19789ZM23.6475 14.0337C23.3479 15.7389 22.6647 17.2674 21.6579 18.4674C20.5073 19.8442 18.9851 20.8295 17.2832 21.3095L16.2045 21.6L18.9731 27.8779H19.6323V28.7495H10.3795V27.8779H11.0387L13.8074 21.6L12.7406 21.3095C11.0387 20.8295 9.51653 19.8442 8.36592 18.4674C7.35913 17.2674 6.67595 15.7263 6.37631 14.0337C6.23249 13.2126 6.14859 12.3537 6.14859 11.5074V1.23789H23.8632V11.5074C23.8632 12.3663 23.7913 13.2126 23.6475 14.0337ZM28.8253 8.19789C28.8253 10.7621 27.1832 12.96 24.906 13.6295C25.0019 12.9347 25.0498 12.2274 25.0498 11.5074V4.67368H28.5376C28.7054 4.67368 28.8372 4.81263 28.8372 4.98947V8.19789H28.8253Z"/>
</mask>
<path d="M28.5376 3.43579H25.0498V1.12421C25.0498 0.505263 24.5704 0 23.9831 0H6.02873C5.44144 0 4.96202 0.505263 4.96202 1.12421V3.43579H1.47422C0.659205 3.43579 0 4.13053 0 4.98947V8.19789C0 11.5453 2.27726 14.3747 5.34556 14.9684C5.74108 16.6105 6.46021 18.1011 7.467 19.3011C8.7135 20.7916 10.3196 21.8653 12.1294 22.4337L10.2836 26.6274H10.2716C9.67234 26.6274 9.19292 27.1326 9.19292 27.7768V30H20.8069V27.7768C20.8069 27.1453 20.3275 26.64 19.7282 26.64L17.8705 22.4463C19.6803 21.8779 21.2863 20.8042 22.5328 19.3137C23.5396 18.1137 24.2588 16.6232 24.6543 14.9811C27.7346 14.3874 29.9998 11.5579 29.9998 8.21053V4.98947C30.0118 4.13053 29.3526 3.43579 28.5376 3.43579ZM1.18657 8.19789V4.98947C1.18657 4.81263 1.31841 4.67368 1.48621 4.67368H4.974V11.5074C4.974 12.2147 5.02195 12.9221 5.11783 13.6295C2.8166 12.96 1.18657 10.7621 1.18657 8.19789ZM23.6475 14.0337C23.3479 15.7389 22.6647 17.2674 21.6579 18.4674C20.5073 19.8442 18.9851 20.8295 17.2832 21.3095L16.2045 21.6L18.9731 27.8779H19.6323V28.7495H10.3795V27.8779H11.0387L13.8074 21.6L12.7406 21.3095C11.0387 20.8295 9.51653 19.8442 8.36592 18.4674C7.35913 17.2674 6.67595 15.7263 6.37631 14.0337C6.23249 13.2126 6.14859 12.3537 6.14859 11.5074V1.23789H23.8632V11.5074C23.8632 12.3663 23.7913 13.2126 23.6475 14.0337ZM28.8253 8.19789C28.8253 10.7621 27.1832 12.96 24.906 13.6295C25.0019 12.9347 25.0498 12.2274 25.0498 11.5074V4.67368H28.5376C28.7054 4.67368 28.8372 4.81263 28.8372 4.98947V8.19789H28.8253Z" fill="black"/>
<path d="M25.0498 3.43579H-174.95V203.436H25.0498V3.43579ZM4.96202 3.43579V203.436H204.962V3.43579H4.96202ZM5.34556 14.9684L199.785 -31.8649L169.657 -156.949L43.3388 -181.39L5.34556 14.9684ZM7.467 19.3011L160.889 -109.002L160.787 -109.125L160.684 -109.246L7.467 19.3011ZM12.1294 22.4337L195.183 103.002L285.167 -101.444L72.0583 -168.376L12.1294 22.4337ZM10.2836 26.6274V226.627H140.772L193.338 107.195L10.2836 26.6274ZM9.19292 30H-190.807V230H9.19292V30ZM20.8069 30V230H220.807V30H20.8069ZM19.7282 26.64L-163.133 107.646L-110.419 226.64H19.7282V26.64ZM17.8705 22.4463L-42.0585 -168.364L-255.68 -101.27L-164.99 103.452L17.8705 22.4463ZM22.5328 19.3137L-130.684 -109.234L-130.787 -109.112L-130.889 -108.99L22.5328 19.3137ZM24.6543 14.9811L-13.1964 -181.405L-139.633 -157.036L-169.785 -31.8523L24.6543 14.9811ZM29.9998 4.98947L-169.981 2.19899L-170 3.59416V4.98947H29.9998ZM4.974 4.67368H204.974V-195.326H4.974V4.67368ZM5.11783 13.6295L-50.7501 205.668L244.626 291.599L203.305 -13.235L5.11783 13.6295ZM23.6475 14.0337L220.63 48.6462L220.639 48.5946L220.648 48.5429L23.6475 14.0337ZM21.6579 18.4674L-131.559 -110.08L-131.684 -109.932L-131.808 -109.783L21.6579 18.4674ZM17.2832 21.3095L69.2958 214.428L70.4354 214.121L71.5714 213.8L17.2832 21.3095ZM16.2045 21.6L-35.8082 -171.518L-260.823 -110.915L-166.79 102.304L16.2045 21.6ZM18.9731 27.8779L-164.021 108.582L-111.409 227.878H18.9731V27.8779ZM19.6323 27.8779H219.632V-172.122H19.6323V27.8779ZM19.6323 28.7495V228.749H219.632V28.7495H19.6323ZM10.3795 28.7495H-189.621V228.749H10.3795V28.7495ZM10.3795 27.8779V-172.122H-189.621V27.8779H10.3795ZM11.0387 27.8779V227.878H141.421L194.033 108.582L11.0387 27.8779ZM13.8074 21.6L196.802 102.304L290.567 -110.308L66.3643 -171.371L13.8074 21.6ZM12.7406 21.3095L-41.5475 213.8L-40.683 214.044L-39.8163 214.28L12.7406 21.3095ZM8.36592 18.4674L161.832 -109.783L161.708 -109.932L161.583 -110.08L8.36592 18.4674ZM6.37631 14.0337L-190.624 48.5429L-190.593 48.7198L-190.562 48.8967L6.37631 14.0337ZM6.14859 1.23789V-198.762H-193.851V1.23789H6.14859ZM23.8632 1.23789H223.863V-198.762H23.8632V1.23789ZM28.8253 8.19789V-191.802H-171.175V8.19789H28.8253ZM24.906 13.6295L-173.216 -13.7144L-215.516 292.773L81.3154 205.51L24.906 13.6295ZM25.0498 4.67368V-195.326H-174.95V4.67368H25.0498ZM28.8372 8.19789V208.198H228.837V8.19789H28.8372ZM28.5376 -196.564H25.0498V203.436H28.5376V-196.564ZM225.05 3.43579V1.12421H-174.95V3.43579H225.05ZM225.05 1.12421C225.05 -99.9287 144.791 -200 23.9831 -200V200C-95.65 200 -174.95 100.939 -174.95 1.12421H225.05ZM23.9831 -200H6.02873V200H23.9831V-200ZM6.02873 -200C-114.779 -200 -195.038 -99.9284 -195.038 1.12421H204.962C204.962 100.939 125.662 200 6.02873 200V-200ZM-195.038 1.12421V3.43579H204.962V1.12421H-195.038ZM4.96202 -196.564H1.47422V203.436H4.96202V-196.564ZM1.47422 -196.564C-119.561 -196.564 -200 -96.3032 -200 4.98947H200C200 104.564 120.88 203.436 1.47422 203.436V-196.564ZM-200 4.98947V8.19789H200V4.98947H-200ZM-200 8.19789C-200 100.802 -136.066 191.316 -32.6477 211.327L43.3388 -181.39C140.621 -162.567 200 -77.7119 200 8.19789H-200ZM-189.094 61.8018C-182.34 89.8406 -168.916 120.237 -145.75 147.849L160.684 -109.246C181.836 -84.0352 193.822 -56.6196 199.785 -31.8649L-189.094 61.8018ZM-145.955 147.605C-120.467 178.082 -86.5592 201.07 -47.7996 213.244L72.0583 -168.376C107.198 -157.34 137.894 -136.498 160.889 -109.002L-145.955 147.605ZM-170.925 -58.1343L-172.77 -53.9406L193.338 107.195L195.183 103.002L-170.925 -58.1343ZM10.2836 -173.373H10.2716V226.627H10.2836V-173.373ZM10.2716 -173.373C-111.949 -173.373 -190.807 -71.8187 -190.807 27.7768H209.193C209.193 126.084 131.294 226.627 10.2716 226.627V-173.373ZM-190.807 27.7768V30H209.193V27.7768H-190.807ZM9.19292 230H20.8069V-170H9.19292V230ZM220.807 30V27.7768H-179.193V30H220.807ZM220.807 27.7768C220.807 -73.2885 140.548 -173.36 19.7282 -173.36V226.64C-99.8931 226.64 -179.193 127.579 -179.193 27.7768H220.807ZM202.589 -54.3656L200.731 -58.5593L-164.99 103.452L-163.133 107.646L202.589 -54.3656ZM77.7994 213.256C116.559 201.083 150.467 178.094 175.955 147.617L-130.889 -108.99C-107.895 -136.486 -77.1985 -157.327 -42.0585 -168.364L77.7994 213.256ZM175.75 147.861C198.916 120.25 212.34 89.8533 219.094 61.8144L-169.785 -31.8523C-163.823 -56.607 -151.836 -84.0226 -130.684 -109.234L175.75 147.861ZM62.505 211.367C166.379 191.346 230 100.468 230 8.21053H-170C-170 -77.3525 -110.91 -162.572 -13.1964 -181.405L62.505 211.367ZM230 8.21053V4.98947H-170V8.21053H230ZM229.98 7.77996C231.43 -96.144 149.192 -196.564 28.5376 -196.564V203.436C-90.4865 203.436 -171.407 104.405 -169.981 2.19899L229.98 7.77996ZM201.187 8.19789V4.98947H-198.813V8.19789H201.187ZM201.187 4.98947C201.187 105.246 121.539 204.674 1.48621 204.674V-195.326C-118.902 -195.326 -198.813 -95.6211 -198.813 4.98947H201.187ZM1.48621 204.674H4.974V-195.326H1.48621V204.674ZM-195.026 4.67368V11.5074H204.974V4.67368H-195.026ZM-195.026 11.5074C-195.026 21.282 -194.361 30.9642 -193.07 40.494L203.305 -13.235C204.405 -5.11999 204.974 3.14744 204.974 11.5074H-195.026ZM60.9857 -178.409C148.515 -152.945 201.187 -73.4765 201.187 8.19789H-198.813C-198.813 95.0007 -142.881 178.865 -50.7501 205.668L60.9857 -178.409ZM-173.335 -20.5789C-168.267 -49.4178 -155.655 -81.36 -131.559 -110.08L174.875 147.015C200.985 115.895 214.963 80.8957 220.63 48.6462L-173.335 -20.5789ZM-131.808 -109.783C-107.291 -139.121 -74.3267 -160.656 -37.005 -171.182L71.5714 213.8C112.297 202.315 148.305 178.81 175.124 146.718L-131.808 -109.783ZM-34.7295 -171.809L-35.8082 -171.518L68.2171 214.718L69.2958 214.428L-34.7295 -171.809ZM-166.79 102.304L-164.021 108.582L201.967 -52.8259L199.199 -59.1037L-166.79 102.304ZM18.9731 227.878H19.6323V-172.122H18.9731V227.878ZM-180.368 27.8779V28.7495H219.632V27.8779H-180.368ZM19.6323 -171.251H10.3795V228.749H19.6323V-171.251ZM210.379 28.7495V27.8779H-189.621V28.7495H210.379ZM10.3795 227.878H11.0387V-172.122H10.3795V227.878ZM194.033 108.582L196.802 102.304L-169.187 -59.1037L-171.956 -52.8258L194.033 108.582ZM66.3643 -171.371L65.2975 -171.661L-39.8163 214.28L-38.7495 214.571L66.3643 -171.371ZM67.0288 -171.182C104.351 -160.656 137.314 -139.121 161.832 -109.783L-145.1 146.718C-118.281 178.81 -82.2731 202.315 -41.5475 213.8L67.0288 -171.182ZM161.583 -110.08C185.862 -81.1425 198.296 -49.1799 203.314 -20.8293L-190.562 48.8967C-184.944 80.6325 -171.143 115.677 -144.851 147.015L161.583 -110.08ZM203.377 -20.4755C204.987 -11.2826 206.149 -0.536457 206.149 11.5074H-193.851C-193.851 25.2438 -192.522 37.7078 -190.624 48.5429L203.377 -20.4755ZM206.149 11.5074V1.23789H-193.851V11.5074H206.149ZM6.14859 201.238H23.8632V-198.762H6.14859V201.238ZM-176.137 1.23789V11.5074H223.863V1.23789H-176.137ZM-176.137 11.5074C-176.137 1.23671 -175.279 -9.47792 -173.353 -20.4755L220.648 48.5429C222.862 35.9032 223.863 23.4959 223.863 11.5074H-176.137ZM-171.175 8.19789C-171.175 -73.7505 -118.334 -152.724 -31.5035 -178.251L81.3154 205.51C172.701 178.644 228.825 95.2747 228.825 8.19789H-171.175ZM223.028 40.9734C224.407 30.9802 225.05 21.1313 225.05 11.5074H-174.95C-174.95 3.32341 -174.403 -5.11072 -173.216 -13.7144L223.028 40.9734ZM225.05 11.5074V4.67368H-174.95V11.5074H225.05ZM25.0498 204.674H28.5376V-195.326H25.0498V204.674ZM28.5376 204.674C-91.5152 204.674 -171.163 105.246 -171.163 4.98947H228.837C228.837 -95.6211 148.926 -195.326 28.5376 -195.326V204.674ZM-171.163 4.98947V8.19789H228.837V4.98947H-171.163ZM28.8372 -191.802H28.8253V208.198H28.8372V-191.802Z" fill="black" mask="url(#path-2-inside-1_300_1139)"/>
</svg>
