<svg width="20" height="25" viewBox="0 0 20 25" fill="none" xmlns="http://www.w3.org/2000/svg">
<mask id="path-1-inside-1_188_1155" fill="white">
<path d="M0 13.0065C0 10.2451 2.23858 8.00655 5 8.00655H15C17.7614 8.00655 20 10.2451 20 13.0065V20C20 22.7614 17.7614 25 15 25H5C2.23858 25 0 22.7614 0 20V13.0065Z"/>
</mask>
<path d="M0 13.0065C0 10.2451 2.23858 8.00655 5 8.00655H15C17.7614 8.00655 20 10.2451 20 13.0065V20C20 22.7614 17.7614 25 15 25H5C2.23858 25 0 22.7614 0 20V13.0065Z" fill="#FFFBFB"/>
<path d="M5 9.00655H15V7.00655H5V9.00655ZM19 13.0065V20H21V13.0065H19ZM15 24H5V26H15V24ZM1 20V13.0065H-1V20H1ZM5 24C2.79086 24 1 22.2091 1 20H-1C-1 23.3137 1.68629 26 5 26V24ZM19 20C19 22.2091 17.2091 24 15 24V26C18.3137 26 21 23.3137 21 20H19ZM15 9.00655C17.2091 9.00655 19 10.7974 19 13.0065H21C21 9.69284 18.3137 7.00655 15 7.00655V9.00655ZM5 7.00655C1.68629 7.00655 -1 9.69283 -1 13.0065H1C1 10.7974 2.79086 9.00655 5 9.00655V7.00655Z" fill="black" mask="url(#path-1-inside-1_188_1155)"/>
<mask id="path-3-inside-2_188_1155" fill="white">
<path fill-rule="evenodd" clip-rule="evenodd" d="M10.8349 17.1571C11.3652 16.8599 11.7242 16.2882 11.7242 15.6318C11.7242 14.6692 10.9522 13.8889 10 13.8889C9.0478 13.8889 8.27588 14.6692 8.27588 15.6318C8.27588 16.2882 8.6348 16.8598 9.16506 17.1571C8.9701 17.3653 8.85053 17.6464 8.85053 17.9557C8.85053 18.5974 9.36514 19.1177 9.99995 19.1177C10.6348 19.1177 11.1494 18.5974 11.1494 17.9557C11.1494 17.6464 11.0298 17.3653 10.8349 17.1571Z"/>
</mask>
<path fill-rule="evenodd" clip-rule="evenodd" d="M10.8349 17.1571C11.3652 16.8599 11.7242 16.2882 11.7242 15.6318C11.7242 14.6692 10.9522 13.8889 10 13.8889C9.0478 13.8889 8.27588 14.6692 8.27588 15.6318C8.27588 16.2882 8.6348 16.8598 9.16506 17.1571C8.9701 17.3653 8.85053 17.6464 8.85053 17.9557C8.85053 18.5974 9.36514 19.1177 9.99995 19.1177C10.6348 19.1177 11.1494 18.5974 11.1494 17.9557C11.1494 17.6464 11.0298 17.3653 10.8349 17.1571Z" fill="black"/>
<path d="M10.8349 17.1571L10.3459 16.2848L9.23258 16.9089L10.1049 17.8406L10.8349 17.1571ZM9.16506 17.1571L9.89501 17.8406L10.7674 16.9089L9.65406 16.2848L9.16506 17.1571ZM10.7242 15.6318C10.7242 15.9157 10.5701 16.1592 10.3459 16.2848L11.3238 18.0294C12.1603 17.5606 12.7242 16.6607 12.7242 15.6318H10.7242ZM10 14.8889C10.3898 14.8889 10.7242 15.2113 10.7242 15.6318H12.7242C12.7242 14.1272 11.5147 12.8889 10 12.8889V14.8889ZM9.27588 15.6318C9.27588 15.2113 9.61027 14.8889 10 14.8889V12.8889C8.48533 12.8889 7.27588 14.1272 7.27588 15.6318H9.27588ZM9.65406 16.2848C9.42994 16.1592 9.27588 15.9157 9.27588 15.6318H7.27588C7.27588 16.6607 7.83966 17.5605 8.67606 18.0294L9.65406 16.2848ZM9.85053 17.9557C9.85053 17.9088 9.86764 17.8698 9.89501 17.8406L8.43511 16.4736C8.07256 16.8608 7.85053 17.384 7.85053 17.9557H9.85053ZM9.99995 18.1177C9.92762 18.1177 9.85053 18.0554 9.85053 17.9557H7.85053C7.85053 19.1395 8.80267 20.1177 9.99995 20.1177V18.1177ZM10.1494 17.9557C10.1494 18.0554 10.0723 18.1177 9.99995 18.1177V20.1177C11.1972 20.1177 12.1494 19.1395 12.1494 17.9557H10.1494ZM10.1049 17.8406C10.1323 17.8698 10.1494 17.9088 10.1494 17.9557H12.1494C12.1494 17.3841 11.9274 16.8609 11.5649 16.4737L10.1049 17.8406Z" fill="black" mask="url(#path-3-inside-2_188_1155)"/>
<path fill-rule="evenodd" clip-rule="evenodd" d="M3.80945 6.01852L3.80951 5.9923V5.55555H3.82749C4.07065 2.44794 6.74124 0 9.99992 0C13.2586 0 15.9292 2.44793 16.1724 5.55554H15.2168C14.9762 2.95995 12.7324 0.925937 10 0.925937C7.10712 0.925937 4.76195 3.20597 4.76195 6.01853C4.76195 6.17458 4.76917 6.32899 4.7833 6.48147H4.76189V8.33335H3.80951V6.04473L3.80945 6.01852Z" fill="black"/>
</svg>
