<svg width="21" height="24" viewBox="0 0 21 24" fill="none" xmlns="http://www.w3.org/2000/svg">
<mask id="path-1-inside-1_300_1263" fill="white">
<path fill-rule="evenodd" clip-rule="evenodd" d="M17.3105 5.82057C19.4363 6.39639 21 8.33911 21 10.6471V19C21 21.7614 18.7614 24 16 24H5C2.23858 24 0 21.7614 0 19V10.6471C0 8.34615 1.55419 6.40825 3.67003 5.82588C4.11211 2.53819 6.9973 0 10.4906 0C13.9821 0 16.866 2.53545 17.3105 5.82057ZM5.16823 5.64706C5.67144 3.23057 7.86314 1.41176 10.4906 1.41176C13.1181 1.41176 15.3098 3.23057 15.813 5.64706H5.16823Z"/>
</mask>
<path fill-rule="evenodd" clip-rule="evenodd" d="M17.3105 5.82057C19.4363 6.39639 21 8.33911 21 10.6471V19C21 21.7614 18.7614 24 16 24H5C2.23858 24 0 21.7614 0 19V10.6471C0 8.34615 1.55419 6.40825 3.67003 5.82588C4.11211 2.53819 6.9973 0 10.4906 0C13.9821 0 16.866 2.53545 17.3105 5.82057ZM5.16823 5.64706C5.67144 3.23057 7.86314 1.41176 10.4906 1.41176C13.1181 1.41176 15.3098 3.23057 15.813 5.64706H5.16823Z" fill="#FFFBFB"/>
<path d="M17.3105 5.82057L16.3196 5.95465L16.4085 6.61228L17.0491 6.78578L17.3105 5.82057ZM3.67003 5.82588L3.9354 6.79002L4.57298 6.61453L4.66111 5.95915L3.67003 5.82588ZM5.16823 5.64706L4.18923 5.44319L3.93854 6.64706H5.16823V5.64706ZM15.813 5.64706V6.64706H17.0427L16.792 5.44319L15.813 5.64706ZM17.0491 6.78578C18.7501 7.24654 20 8.80211 20 10.6471H22C22 7.87611 20.1225 5.54623 17.572 4.85535L17.0491 6.78578ZM20 10.6471V19H22V10.6471H20ZM20 19C20 21.2091 18.2091 23 16 23V25C19.3137 25 22 22.3137 22 19H20ZM16 23H5V25H16V23ZM5 23C2.79086 23 1 21.2091 1 19H-1C-1 22.3137 1.68629 25 5 25V23ZM1 19V10.6471H-1V19H1ZM1 10.6471C1 8.80776 2.24229 7.25604 3.9354 6.79002L3.40465 4.86173C0.866079 5.56046 -1 7.88455 -1 10.6471H1ZM10.4906 -1C6.50947 -1 3.18948 1.89587 2.67895 5.69261L4.66111 5.95915C5.03474 3.1805 7.48512 1 10.4906 1V-1ZM18.3015 5.68649C17.7882 1.89276 14.4697 -1 10.4906 -1V1C13.4945 1 15.9439 3.17815 16.3196 5.95465L18.3015 5.68649ZM6.14723 5.85092C6.55228 3.90581 8.32903 2.41176 10.4906 2.41176V0.411765C7.39725 0.411765 4.7906 2.55533 4.18923 5.44319L6.14723 5.85092ZM10.4906 2.41176C12.6522 2.41176 14.429 3.90581 14.834 5.85092L16.792 5.44319C16.1907 2.55533 13.584 0.411765 10.4906 0.411765V2.41176ZM5.16823 6.64706H15.813V4.64706H5.16823V6.64706Z" fill="black" mask="url(#path-1-inside-1_300_1263)"/>
<mask id="path-3-inside-2_300_1263" fill="white">
<path fill-rule="evenodd" clip-rule="evenodd" d="M11.3767 15.5297C11.9335 15.2087 12.3104 14.5913 12.3104 13.8824C12.3104 12.8428 11.4999 12 10.5 12C9.50022 12 8.6897 12.8428 8.6897 13.8824C8.6897 14.5912 9.06657 15.2086 9.62335 15.5297C9.41864 15.7545 9.29309 16.0581 9.29309 16.3922C9.29309 17.0852 9.83344 17.6471 10.5 17.6471C11.1665 17.6471 11.7069 17.0852 11.7069 16.3922C11.7069 16.0581 11.5814 15.7546 11.3767 15.5297Z"/>
</mask>
<path fill-rule="evenodd" clip-rule="evenodd" d="M11.3767 15.5297C11.9335 15.2087 12.3104 14.5913 12.3104 13.8824C12.3104 12.8428 11.4999 12 10.5 12C9.50022 12 8.6897 12.8428 8.6897 13.8824C8.6897 14.5912 9.06657 15.2086 9.62335 15.5297C9.41864 15.7545 9.29309 16.0581 9.29309 16.3922C9.29309 17.0852 9.83344 17.6471 10.5 17.6471C11.1665 17.6471 11.7069 17.0852 11.7069 16.3922C11.7069 16.0581 11.5814 15.7546 11.3767 15.5297Z" fill="black"/>
<path d="M11.3767 15.5297L10.8772 14.6634L9.80074 15.284L10.6372 16.2028L11.3767 15.5297ZM9.62335 15.5297L10.3628 16.2028L11.1993 15.284L10.1229 14.6634L9.62335 15.5297ZM11.3104 13.8824C11.3104 14.2327 11.1253 14.5203 10.8772 14.6634L11.8761 16.396C12.7417 15.897 13.3104 14.9499 13.3104 13.8824H11.3104ZM10.5 13C10.9112 13 11.3104 13.3579 11.3104 13.8824H13.3104C13.3104 12.3276 12.0886 11 10.5 11V13ZM9.6897 13.8824C9.6897 13.3579 10.0889 13 10.5 13V11C8.91153 11 7.6897 12.3276 7.6897 13.8824H9.6897ZM10.1229 14.6634C9.8748 14.5203 9.6897 14.2327 9.6897 13.8824H7.6897C7.6897 14.9498 8.25834 15.8969 9.12383 16.396L10.1229 14.6634ZM10.2931 16.3922C10.2931 16.3119 10.3225 16.2471 10.3628 16.2028L8.88388 14.8565C8.51479 15.2619 8.29309 15.8043 8.29309 16.3922H10.2931ZM10.5 16.6471C10.4221 16.6471 10.2931 16.5701 10.2931 16.3922H8.29309C8.29309 17.6004 9.24475 18.6471 10.5 18.6471V16.6471ZM10.7069 16.3922C10.7069 16.5701 10.5778 16.6471 10.5 16.6471V18.6471C11.7552 18.6471 12.7069 17.6004 12.7069 16.3922H10.7069ZM10.6372 16.2028C10.6775 16.2472 10.7069 16.3119 10.7069 16.3922H12.7069C12.7069 15.8043 12.4852 15.262 12.1162 14.8565L10.6372 16.2028Z" fill="black" mask="url(#path-3-inside-2_300_1263)"/>
</svg>
