<svg width="32" height="32" viewBox="0 0 32 32" fill="none" xmlns="http://www.w3.org/2000/svg">
<path fill-rule="evenodd" clip-rule="evenodd" d="M30.5725 0.770817C29.7877 -0.00642198 28.5214 -0.000260949 27.7442 0.784578L15.3414 13.3086L3.42111 1.27115C2.64389 0.486298 1.37757 0.48011 0.592715 1.25733C-0.192142 2.03455 -0.19833 3.30087 0.578892 4.08573L12.5267 16.1509L1.25038 27.5374C0.473143 28.3223 0.479304 29.5886 1.26414 30.3658C2.04898 31.143 3.3153 31.1369 4.09254 30.352L15.3414 18.9932L27.0721 30.8391C27.8493 31.624 29.1156 31.6302 29.9005 30.853C30.6853 30.0757 30.6915 28.8094 29.9143 28.0246L18.1561 16.1509L30.5863 3.59921C31.3635 2.81437 31.3574 1.54806 30.5725 0.770817Z" fill="#FF0000"/>
</svg>
